<?xml version="1.0" standalone="no"?>
<!DOCTYPE svg PUBLIC "-//W3C//DTD SVG 20010904//EN"
 "http://www.w3.org/TR/2001/REC-SVG-20010904/DTD/svg10.dtd">
<svg version="1.0" xmlns="http://www.w3.org/2000/svg"
 width="1024.000000pt" height="243.000000pt" viewBox="0 0 1024.000000 243.000000"
 preserveAspectRatio="xMidYMid meet">

<g transform="translate(0.000000,243.000000) scale(0.100000,-0.100000)"
fill="#000000" stroke="none">
<path d="M957 2143 c-4 -3 -7 -66 -7 -140 0 -110 3 -133 15 -133 11 0 15 21
17 108 l3 107 53 -87 c29 -49 57 -88 62 -88 5 0 33 42 62 92 l53 92 3 -112 c4
-164 22 -141 22 28 0 77 -4 140 -9 140 -5 0 -35 -45 -66 -100 -31 -55 -60
-100 -65 -100 -4 0 -33 45 -65 100 -58 98 -65 107 -78 93z"/>
<path d="M1362 2016 c-34 -74 -62 -138 -62 -141 0 -18 23 1 39 34 l20 38 75 1
76 1 20 -39 c18 -36 40 -53 40 -32 0 22 -121 267 -133 270 -9 2 -36 -44 -75
-132z m108 28 c17 -36 30 -68 30 -70 0 -2 -29 -4 -65 -4 -36 0 -65 2 -65 4 0
9 61 136 66 136 2 0 18 -30 34 -66z"/>
<path d="M1630 2011 c0 -82 4 -141 9 -141 6 0 11 19 13 43 l3 42 50 3 c50 3
51 2 83 -43 17 -25 36 -45 42 -45 15 0 12 10 -15 46 -30 39 -31 50 -5 64 23
12 39 65 30 99 -11 44 -53 65 -136 69 l-74 4 0 -141z m170 89 c27 -27 25 -66
-5 -96 -22 -22 -32 -25 -83 -22 l-57 3 -3 68 -3 67 66 0 c52 0 69 -4 85 -20z"/>
<path d="M1920 2011 c0 -120 2 -141 15 -141 13 0 15 20 13 137 -2 98 -6 138
-15 141 -10 3 -13 -29 -13 -137z"/>
<path d="M2040 2010 c0 -116 2 -140 15 -140 12 0 15 21 17 110 l3 109 88 -109
c48 -61 92 -110 97 -110 6 0 10 55 10 140 0 87 -4 140 -10 140 -6 0 -10 -44
-10 -111 0 -61 -4 -109 -9 -107 -5 2 -48 51 -95 111 -48 59 -91 107 -96 107
-6 0 -10 -56 -10 -140z"/>
<path d="M2435 2116 c-8 -18 -37 -81 -64 -140 -35 -75 -46 -106 -35 -106 7 0
22 17 31 38 l18 37 78 3 78 3 17 -40 c9 -23 23 -41 31 -41 16 0 18 -8 -55 153
-33 72 -64 127 -71 127 -8 0 -20 -15 -28 -34z m66 -79 l28 -62 -61 -3 c-33 -2
-62 -1 -65 1 -2 3 10 35 27 72 16 38 33 65 37 61 4 -3 19 -34 34 -69z"/>
<path d="M4861 1824 c-69 -87 -35 -226 51 -210 98 19 115 18 164 -3 62 -28 89
-51 72 -63 -31 -19 -205 4 -268 37 -29 15 -31 14 -82 -25 -72 -54 -133 -73
-218 -68 -64 3 -100 15 -74 25 6 2 45 24 87 49 57 34 90 47 132 51 30 3 55 10
55 16 0 6 -23 8 -60 4 -47 -4 -76 -14 -128 -45 -37 -23 -79 -46 -94 -53 -64
-28 -6 -69 96 -69 80 0 145 21 209 67 l49 34 66 -23 c54 -18 88 -23 174 -23
63 0 111 4 118 11 7 7 -5 21 -42 47 -98 67 -157 80 -241 55 -37 -11 -41 -10
-58 11 -28 35 -25 109 6 155 14 20 25 39 25 41 0 13 -21 2 -39 -21z"/>
<path d="M4933 1700 c-24 -10 -43 -24 -43 -30 0 -14 6 -13 37 7 26 18 82 21
210 13 53 -4 60 -6 53 -20 -5 -9 -16 -22 -24 -29 -9 -8 -13 -18 -10 -23 3 -5
15 -1 26 9 22 19 52 72 45 79 -2 2 -59 6 -128 9 -108 4 -130 2 -166 -15z"/>
<path d="M4650 1698 c-25 -5 -82 -7 -127 -5 -91 5 -96 1 -69 -52 16 -29 64
-67 73 -57 4 3 -11 22 -31 42 -20 20 -36 38 -33 40 2 2 70 6 151 9 l147 6 31
-31 c31 -31 51 -33 32 -3 -30 48 -97 67 -174 51z"/>
<path d="M3103 1665 c-189 -41 -339 -203 -362 -390 -36 -301 177 -538 484
-538 199 0 361 98 442 268 31 66 37 89 41 168 8 151 -29 255 -127 360 -112
120 -297 171 -478 132z m289 -107 c289 -134 297 -563 12 -697 -203 -96 -441
-17 -536 177 -31 62 -33 74 -33 167 0 83 4 108 23 150 52 113 125 182 230 216
85 28 227 22 304 -13z"/>
<path d="M7120 1674 c-277 -54 -441 -292 -390 -565 32 -170 179 -319 355 -359
70 -16 199 -14 269 5 226 60 375 293 337 528 -37 229 -216 383 -456 392 -49 2
-101 1 -115 -1z m215 -98 c167 -51 274 -211 263 -395 -8 -145 -85 -259 -216
-323 -62 -31 -73 -33 -172 -33 -97 0 -110 2 -172 32 -317 150 -288 615 45 718
57 18 193 18 252 1z"/>
<path d="M890 1206 l0 -466 50 0 50 0 0 150 0 150 174 0 c198 0 266 14 346 73
94 70 134 211 96 341 -23 78 -97 154 -181 187 -56 22 -77 23 -297 27 l-238 4
0 -466z m457 371 c97 -26 153 -82 173 -173 23 -107 -22 -204 -117 -251 -56
-27 -64 -28 -235 -31 l-178 -4 0 236 0 236 153 0 c95 0 172 -5 204 -13z"/>
<path d="M1850 1206 l0 -466 50 0 50 0 0 150 0 150 163 0 163 0 108 -150 107
-150 49 0 c28 0 50 2 50 5 0 3 -46 69 -103 147 -57 79 -106 148 -110 155 -5 8
9 21 41 37 133 67 192 221 146 376 -21 72 -97 148 -179 181 -56 22 -76 23
-297 27 l-238 4 0 -466z m500 358 c57 -26 117 -92 126 -139 3 -19 4 -64 2 -99
-5 -85 -39 -135 -117 -173 -54 -27 -63 -28 -233 -31 l-178 -4 0 237 0 237 178
-4 c151 -3 184 -7 222 -24z"/>
<path d="M5890 1630 l0 -40 165 0 165 0 0 -425 0 -425 45 0 45 0 0 425 0 425
165 0 165 0 0 40 0 40 -375 0 -375 0 0 -40z"/>
<path d="M7922 1208 l3 -463 48 -3 47 -3 0 150 0 151 164 0 164 0 107 -150
107 -150 49 0 c27 0 49 2 49 5 0 3 -40 60 -88 127 -48 68 -98 137 -110 155
l-23 32 49 25 c100 51 151 130 160 247 7 100 -17 168 -81 233 -88 90 -125 100
-410 104 l-237 4 2 -464z m498 356 c91 -42 132 -108 132 -211 1 -113 -54 -185
-168 -219 -32 -10 -97 -14 -206 -14 l-158 0 0 236 0 236 178 -4 c152 -3 183
-7 222 -24z"/>
<path d="M8740 1630 l0 -40 165 0 165 0 0 -426 0 -425 48 3 47 3 3 423 2 422
160 0 160 0 0 40 0 40 -375 0 -375 0 0 -40z"/>
<path d="M5236 1611 c-3 -5 12 -20 33 -34 83 -55 110 -178 71 -330 -80 -320
-311 -637 -465 -637 -58 0 -130 45 -223 138 -206 206 -332 429 -332 585 0 89
17 133 78 199 62 66 48 80 -15 16 -61 -62 -83 -117 -83 -210 0 -173 118 -386
335 -603 100 -101 173 -145 240 -145 61 0 136 42 201 113 208 230 343 587 291
768 -21 71 -113 169 -131 140z"/>
<path d="M4415 1440 c3 -5 8 -10 11 -10 2 0 4 5 4 10 0 6 -5 10 -11 10 -5 0
-7 -4 -4 -10z"/>
<path d="M4834 1394 c-18 -43 -15 -73 9 -88 22 -14 51 2 55 31 4 26 -23 93
-38 93 -6 0 -18 -16 -26 -36z m40 -29 c7 -27 1 -45 -14 -45 -12 0 -19 26 -13
49 7 28 19 26 27 -4z"/>
<path d="M4387 1383 c-13 -12 -7 -99 9 -154 19 -63 63 -154 93 -189 32 -39 25
-8 -18 72 -47 87 -74 174 -70 228 3 40 -2 56 -14 43z"/>
<path d="M4554 1294 c-18 -43 -15 -73 9 -88 22 -14 51 2 55 31 4 26 -23 93
-38 93 -6 0 -18 -16 -26 -36z m40 -29 c7 -27 1 -45 -14 -45 -12 0 -19 26 -13
49 7 28 19 26 27 -4z"/>
<path d="M5132 1305 c-19 -42 -15 -83 10 -96 18 -10 24 -8 39 10 17 21 16 47
-4 89 -14 29 -31 28 -45 -3z m38 -46 c0 -19 -5 -29 -15 -29 -15 0 -20 26 -9
54 9 24 24 9 24 -25z"/>
<path d="M4686 1091 c-28 -53 -16 -101 26 -101 28 0 41 35 28 75 -18 53 -36
62 -54 26z m37 -38 c6 -33 -7 -53 -24 -36 -13 13 -4 63 10 63 5 0 11 -12 14
-27z"/>
<path d="M4986 1098 c-11 -17 -16 -41 -14 -65 3 -35 5 -38 33 -38 28 0 30 3
33 41 2 28 -3 48 -16 64 l-19 24 -17 -26z m34 -59 c0 -19 -5 -29 -15 -29 -15
0 -22 50 -9 63 12 12 24 -4 24 -34z"/>
<path d="M4833 856 c-17 -38 -12 -80 12 -90 43 -16 67 36 42 90 -9 19 -21 34
-27 34 -6 0 -18 -15 -27 -34z m47 -42 c0 -7 -5 -16 -11 -20 -18 -11 -31 11
-23 41 7 26 8 27 20 10 8 -11 14 -24 14 -31z"/>
</g>
</svg>
