<svg width="118" height="24" viewBox="0 0 118 24" fill="none" xmlns="http://www.w3.org/2000/svg">
<path d="M0.429109 18V6.406H3.13511V18H0.429109ZM1.74911 3.942C1.20644 3.942 0.781109 3.81 0.47311 3.546C0.179776 3.26733 0.0331095 2.87867 0.0331095 2.38C0.0331095 1.91067 0.187109 1.52933 0.495109 1.236C0.803109 0.942666 1.22111 0.795999 1.74911 0.795999C2.30644 0.795999 2.73178 0.935332 3.02511 1.214C3.33311 1.478 3.48711 1.86667 3.48711 2.38C3.48711 2.83467 3.33311 3.20867 3.02511 3.502C2.71711 3.79533 2.29178 3.942 1.74911 3.942ZM6.56642 18V6.406H9.20642L9.25042 8.782L8.74442 9.046C8.89109 8.518 9.17709 8.04133 9.60242 7.616C10.0278 7.176 10.5338 6.824 11.1204 6.56C11.7071 6.296 12.3084 6.164 12.9244 6.164C13.8044 6.164 14.5378 6.34 15.1244 6.692C15.7258 7.044 16.1731 7.572 16.4664 8.276C16.7744 8.98 16.9284 9.86 16.9284 10.916V18H14.2224V11.114C14.2224 10.5273 14.1418 10.0433 13.9804 9.662C13.8191 9.266 13.5698 8.98 13.2324 8.804C12.8951 8.61333 12.4844 8.52533 12.0004 8.54C11.6044 8.54 11.2378 8.606 10.9004 8.738C10.5778 8.85533 10.2918 9.03133 10.0424 9.266C9.80776 9.486 9.61709 9.74267 9.47042 10.036C9.33842 10.3293 9.27242 10.652 9.27242 11.004V18H7.93042C7.66642 18 7.41709 18 7.18242 18C6.96242 18 6.75709 18 6.56642 18ZM23.8447 18.22C22.818 18.22 21.894 18.0513 21.0727 17.714C20.266 17.362 19.606 16.8633 19.0927 16.218L20.8527 14.7C21.2927 15.1987 21.784 15.558 22.3267 15.778C22.8693 15.998 23.4413 16.108 24.0427 16.108C24.292 16.108 24.512 16.0787 24.7027 16.02C24.908 15.9613 25.084 15.8733 25.2307 15.756C25.3773 15.6387 25.4873 15.5067 25.5607 15.36C25.6487 15.1987 25.6927 15.0227 25.6927 14.832C25.6927 14.48 25.5607 14.2013 25.2967 13.996C25.15 13.8933 24.9153 13.7833 24.5927 13.666C24.2847 13.5487 23.8813 13.4313 23.3827 13.314C22.5907 13.1087 21.9307 12.874 21.4027 12.61C20.8747 12.3313 20.464 12.0233 20.1707 11.686C19.9213 11.4073 19.7307 11.092 19.5987 10.74C19.4813 10.388 19.4227 10.0067 19.4227 9.596C19.4227 9.08267 19.5327 8.62067 19.7527 8.21C19.9873 7.78467 20.3027 7.418 20.6987 7.11C21.0947 6.802 21.5567 6.56733 22.0847 6.406C22.6127 6.24467 23.1627 6.164 23.7347 6.164C24.3213 6.164 24.886 6.23733 25.4287 6.384C25.986 6.53067 26.4993 6.74333 26.9687 7.022C27.4527 7.286 27.8633 7.60867 28.2007 7.99L26.7047 9.64C26.426 9.376 26.118 9.14133 25.7807 8.936C25.458 8.73067 25.128 8.56933 24.7907 8.452C24.4533 8.32 24.138 8.254 23.8447 8.254C23.566 8.254 23.3167 8.28333 23.0967 8.342C22.8767 8.386 22.6933 8.45933 22.5467 8.562C22.4 8.66467 22.2827 8.79667 22.1947 8.958C22.1213 9.10467 22.0847 9.28067 22.0847 9.486C22.0993 9.662 22.1433 9.83067 22.2167 9.992C22.3047 10.1387 22.422 10.2633 22.5687 10.366C22.73 10.4687 22.972 10.586 23.2947 10.718C23.6173 10.85 24.0353 10.9747 24.5487 11.092C25.2673 11.2827 25.8687 11.4953 26.3527 11.73C26.8367 11.9647 27.218 12.236 27.4967 12.544C27.7753 12.808 27.9733 13.116 28.0907 13.468C28.208 13.82 28.2667 14.2087 28.2667 14.634C28.2667 15.3233 28.0687 15.9393 27.6727 16.482C27.2913 17.0247 26.7633 17.45 26.0887 17.758C25.4287 18.066 24.6807 18.22 23.8447 18.22ZM31.9044 18V3.458H34.6104V18H31.9044ZM29.6164 8.914V6.406H37.1404V8.914H29.6164ZM43.4718 18.22C42.5184 18.22 41.6531 17.956 40.8758 17.428C40.0984 16.9 39.4751 16.1813 39.0058 15.272C38.5364 14.3627 38.3018 13.3287 38.3018 12.17C38.3018 11.0113 38.5364 9.97733 39.0058 9.068C39.4751 8.15867 40.1131 7.44733 40.9198 6.934C41.7264 6.42067 42.6358 6.164 43.6478 6.164C44.2344 6.164 44.7698 6.252 45.2538 6.428C45.7378 6.58933 46.1631 6.824 46.5298 7.132C46.8964 7.44 47.1971 7.792 47.4318 8.188C47.6811 8.584 47.8498 9.00933 47.9378 9.464L47.3438 9.31V6.406H50.0718V18H47.3218V15.228L47.9598 15.118C47.8571 15.514 47.6664 15.9027 47.3878 16.284C47.1238 16.6507 46.7864 16.9807 46.3758 17.274C45.9798 17.5527 45.5324 17.78 45.0338 17.956C44.5498 18.132 44.0291 18.22 43.4718 18.22ZM44.2198 15.822C44.8504 15.822 45.4078 15.668 45.8918 15.36C46.3758 15.052 46.7498 14.6267 47.0138 14.084C47.2924 13.5267 47.4318 12.8887 47.4318 12.17C47.4318 11.466 47.2924 10.8427 47.0138 10.3C46.7498 9.75733 46.3758 9.332 45.8918 9.024C45.4078 8.716 44.8504 8.562 44.2198 8.562C43.5891 8.562 43.0318 8.716 42.5478 9.024C42.0784 9.332 41.7118 9.75733 41.4478 10.3C41.1838 10.8427 41.0518 11.466 41.0518 12.17C41.0518 12.8887 41.1838 13.5267 41.4478 14.084C41.7118 14.6267 42.0784 15.052 42.5478 15.36C43.0318 15.668 43.5891 15.822 44.2198 15.822ZM58.423 23.06C57.5577 23.06 56.6923 22.928 55.827 22.664C54.9763 22.4 54.287 22.0553 53.759 21.63L54.727 19.628C55.035 19.848 55.3797 20.0387 55.761 20.2C56.1423 20.3613 56.5457 20.486 56.971 20.574C57.411 20.662 57.8437 20.706 58.269 20.706C59.0463 20.706 59.6917 20.5813 60.205 20.332C60.733 20.0973 61.129 19.7307 61.393 19.232C61.657 18.748 61.789 18.1393 61.789 17.406V15.272L62.185 15.426C62.097 15.8807 61.855 16.3133 61.459 16.724C61.063 17.1347 60.5643 17.472 59.963 17.736C59.3617 17.9853 58.7457 18.11 58.115 18.11C57.015 18.11 56.0397 17.8533 55.189 17.34C54.353 16.8267 53.6857 16.13 53.187 15.25C52.703 14.3553 52.461 13.3287 52.461 12.17C52.461 11.0113 52.703 9.98467 53.187 9.09C53.671 8.18067 54.331 7.46933 55.167 6.956C56.0177 6.428 56.971 6.164 58.027 6.164C58.467 6.164 58.8923 6.21533 59.303 6.318C59.7137 6.42067 60.0877 6.56733 60.425 6.758C60.777 6.94867 61.0923 7.16133 61.371 7.396C61.6497 7.63067 61.877 7.88 62.053 8.144C62.229 8.408 62.339 8.66467 62.383 8.914L61.811 9.09L61.855 6.406H64.517V17.208C64.517 18.1467 64.3777 18.9753 64.099 19.694C63.8203 20.4127 63.417 21.0213 62.889 21.52C62.361 22.0333 61.723 22.4147 60.975 22.664C60.227 22.928 59.3763 23.06 58.423 23.06ZM58.533 15.8C59.193 15.8 59.7723 15.646 60.271 15.338C60.7843 15.03 61.1803 14.6047 61.459 14.062C61.7377 13.5193 61.877 12.896 61.877 12.192C61.877 11.4733 61.7303 10.8427 61.437 10.3C61.1583 9.74267 60.7697 9.31 60.271 9.002C59.7723 8.694 59.193 8.54 58.533 8.54C57.873 8.54 57.2937 8.70133 56.795 9.024C56.2963 9.332 55.9003 9.76467 55.607 10.322C55.3283 10.8647 55.189 11.488 55.189 12.192C55.189 12.8813 55.3283 13.5047 55.607 14.062C55.9003 14.6047 56.2963 15.03 56.795 15.338C57.2937 15.646 57.873 15.8 58.533 15.8ZM67.6465 18V6.406H70.3085L70.3525 10.102L69.9785 9.266C70.1398 8.67933 70.4185 8.15133 70.8145 7.682C71.2105 7.21267 71.6652 6.846 72.1785 6.582C72.7065 6.30333 73.2565 6.164 73.8285 6.164C74.0778 6.164 74.3125 6.186 74.5325 6.23C74.7672 6.274 74.9578 6.32533 75.1045 6.384L74.3785 9.354C74.2172 9.266 74.0192 9.19267 73.7845 9.134C73.5498 9.07533 73.3152 9.046 73.0805 9.046C72.7138 9.046 72.3618 9.11933 72.0245 9.266C71.7018 9.398 71.4158 9.58867 71.1665 9.838C70.9172 10.0873 70.7192 10.3807 70.5725 10.718C70.4405 11.0407 70.3745 11.4073 70.3745 11.818V18H67.6465ZM80.7901 18.22C79.8368 18.22 78.9715 17.956 78.1941 17.428C77.4168 16.9 76.7935 16.1813 76.3241 15.272C75.8548 14.3627 75.6201 13.3287 75.6201 12.17C75.6201 11.0113 75.8548 9.97733 76.3241 9.068C76.7935 8.15867 77.4315 7.44733 78.2381 6.934C79.0448 6.42067 79.9541 6.164 80.9661 6.164C81.5528 6.164 82.0881 6.252 82.5721 6.428C83.0561 6.58933 83.4815 6.824 83.8481 7.132C84.2148 7.44 84.5155 7.792 84.7501 8.188C84.9995 8.584 85.1681 9.00933 85.2561 9.464L84.6621 9.31V6.406H87.3901V18H84.6401V15.228L85.2781 15.118C85.1755 15.514 84.9848 15.9027 84.7061 16.284C84.4421 16.6507 84.1048 16.9807 83.6941 17.274C83.2981 17.5527 82.8508 17.78 82.3521 17.956C81.8681 18.132 81.3475 18.22 80.7901 18.22ZM81.5381 15.822C82.1688 15.822 82.7261 15.668 83.2101 15.36C83.6941 15.052 84.0681 14.6267 84.3321 14.084C84.6108 13.5267 84.7501 12.8887 84.7501 12.17C84.7501 11.466 84.6108 10.8427 84.3321 10.3C84.0681 9.75733 83.6941 9.332 83.2101 9.024C82.7261 8.716 82.1688 8.562 81.5381 8.562C80.9075 8.562 80.3501 8.716 79.8661 9.024C79.3968 9.332 79.0301 9.75733 78.7661 10.3C78.5021 10.8427 78.3701 11.466 78.3701 12.17C78.3701 12.8887 78.5021 13.5267 78.7661 14.084C79.0301 14.6267 79.3968 15.052 79.8661 15.36C80.3501 15.668 80.9075 15.822 81.5381 15.822ZM90.4834 18V6.406H93.1454L93.1894 8.738L92.7494 8.914C92.8814 8.53267 93.0794 8.18067 93.3434 7.858C93.6074 7.52067 93.9227 7.23467 94.2894 7C94.656 6.75067 95.0447 6.56 95.4554 6.428C95.866 6.28133 96.284 6.208 96.7094 6.208C97.34 6.208 97.8974 6.31067 98.3814 6.516C98.88 6.70667 99.2907 7.01467 99.6134 7.44C99.9507 7.86533 100.2 8.408 100.361 9.068L99.9434 8.98L100.119 8.628C100.281 8.276 100.508 7.96067 100.801 7.682C101.095 7.38867 101.425 7.132 101.791 6.912C102.158 6.67733 102.539 6.50133 102.935 6.384C103.346 6.26667 103.749 6.208 104.145 6.208C105.025 6.208 105.759 6.384 106.345 6.736C106.932 7.088 107.372 7.62333 107.665 8.342C107.959 9.06067 108.105 9.948 108.105 11.004V18H105.377V11.18C105.377 10.5933 105.297 10.1093 105.135 9.728C104.989 9.34667 104.754 9.068 104.431 8.892C104.123 8.70133 103.735 8.606 103.265 8.606C102.899 8.606 102.547 8.672 102.209 8.804C101.887 8.92133 101.608 9.09733 101.373 9.332C101.139 9.552 100.955 9.80867 100.823 10.102C100.691 10.3953 100.625 10.718 100.625 11.07V18H97.8974V11.158C97.8974 10.6007 97.8167 10.1387 97.6554 9.772C97.494 9.39067 97.2594 9.10467 96.9514 8.914C96.6434 8.70867 96.2694 8.606 95.8294 8.606C95.4627 8.606 95.118 8.672 94.7954 8.804C94.4727 8.92133 94.194 9.09 93.9594 9.31C93.7247 9.53 93.5414 9.78667 93.4094 10.08C93.2774 10.3733 93.2114 10.696 93.2114 11.048V18H90.4834ZM113.067 9.904L113.309 7.22L113.507 7.242L111.065 8.892L110.119 7.264L112.759 6.076L112.737 6.208L110.097 4.954L111.043 3.326L113.529 5.064L113.309 5.042L113.067 2.314H115.025L114.783 5.24L114.541 5.086L116.961 3.37L117.885 5.02L115.201 6.274V6.032L117.863 7.242L116.917 8.87L114.519 7.176L114.805 7.22L115.025 9.904H113.067Z" fill="black"/>
</svg>
